<svg version="1.2" xmlns="http://www.w3.org/2000/svg" viewBox="0 0 244 117" width="244" height="117">
	<title>Nytt projekt</title>
	<style>
		.s0 { fill: #1a1919 } 
	</style>
	<path id="." class="s0" aria-label="."  d="m216.7 105.7q-2.3 0-4.4-1.4-2.1-1.5-2.1-4.8 0-3.3 3-5.1 3-1.9 5.6-1.9 2.5 0 4.2 1.5 1.8 1.3 1.8 3.4 0 8.3-8.1 8.3z"/>
	<path id="M" class="s0" aria-label="M"  d="m76.6 73.7q0 24.4 2.8 24.4 2.7 0 7.2-6.1 4.6-6.3 9-16.1 4.5-9.9 5.4-9.9 1 0 1 1.2 0 4.2-5.1 15.3-10.9 23.3-19.6 23.3-3.3-0.1-6-0.8-2.7-0.9-3.3-1.7-1.5-1.8-1.5-13.1 0-27.1 1.8-43.9-8.7 8.6-15.9 19.5 3.1 12 3.1 20.9 0 8.7-3.4 13.5-3.3 4.8-8.4 4.8-6.2 0-6.2-11.8 0-8.2 6.5-21.5-3-10.5-8.7-20.6-2.4 13.7-7.4 27.9-4.9 14.3-10.2 21.3-5.2 7-12.4 7-5.3 0-5.3-4.1 0-3.3 2.3-4.7 2.2-1.3 5.2-1.9 3.2-0.8 4.1-1.6 5.8-6.2 10.9-21 5.3-14.9 7.7-30.5-6.5-8.4-6.5-12.5 0-4.1 2.1-7.3 2.3-3.2 7.2-3.2 1.5 0 2.6 4 1 3.7 1 7.9 9.2 13.4 14 27.6 8.4-13.8 19.2-25.5 4.6-28.3 10.8-28.3 2 0 4.3 3.1 2.4 3.2 2.4 6.5 0 10.2-8.8 20.7-1.9 12.7-1.9 37.2zm-31.1 4.5q-3.6 7.9-3.6 14.2 0 6.1 1.5 6.1 1.5 0 2.2-3.5 0.8-3.8 0.8-7.8 0-4.1-0.9-9z"/>
	<path id="aria" class="s0" aria-label="aria"  d="m109.9 105.5q-4 0-6-1.6-0.8-0.8-0.8-3.6 0-3 0.3-8-2.7 6.7-5.4 10-2.6 3.2-6.7 3.2-4.1 0-7.2-3.8-3.1-3.9-3.1-12.2 0-8.3 4.6-14.7 4.8-6.4 12.4-6.4 3.3 0 7.4 4.4 0.8-1.2 2.9-2.7 2.2-1.7 3.6-1.7 1.5 0 1.5 3.9 0 1.1-0.6 4.1-0.5 3-1.2 4.3-0.9 2.4-0.9 16.8 0 2.8 0.6 2.8 1.7-0.1 4.8-4.4 3.1-4.3 6.1-11 3.1-6.7 3.7-6.7 0.7 0 0.7 0.8 0 2.9-3 9.2-8.1 17.3-13.7 17.3zm-12.5-32.9q-2.9 0-6.2 4.3-3.2 4.2-3.2 10 0 5.7 1.7 9.4 1.7 3.8 4.5 3.8 3.4 0 10-17 0.1-0.9 0.2-2.8 0.2-2.1 0.3-3.1-0.9-1.7-3.3-3.1-2.3-1.5-4-1.5zm32 5.5l5.7-0.6q0.8 0 1.4 0.9 0.6 1 0.6 2 0 1-0.7 7-0.6 6-0.6 9.5 0 3.4 0.6 3.4 1.8-0.1 4.9-4.4 3-4.3 6-11 3.1-6.7 3.7-6.7 0.8 0 0.8 0.8 0 2.9-3 9.2-8.2 17.3-13.7 17.3-4 0-6.1-1.6-0.7-0.8-0.7-9 0-8.2 1.7-14.1-5.9 0-8.3-3.8-1.3-2-1.3-4.4 0-2.5 1.1-4.4 1-1.8 2.9-1.8 1.9 0 3.5 2 1.6 2 1.6 4.5 0 2.4-1.4 4.9 0.4 0.3 1.3 0.3zm21.1-23.5q0-1.8 2-3.2 1.9-1.3 3.5-1.3 2.8 0 2.8 3.2 0 3.2-1.7 5.6-1.6 2.2-4.6 2.2-2 0-2-6.5zm3 50.9q-4 0-6.1-1.6-0.7-0.8-0.7-5.2 0-4.4 0.6-14.7 0.8-10.4 1.3-11.2 0.5-0.9 3.2-3.1 2.6-2.3 4.1-2.3 1.5 0 1.5 3.9 0 1-0.6 4-0.5 3-1.2 4.4-1.4 3.4-1.4 17.8 0 2.8 0.7 2.8 1.7-0.1 4.8-4.4 3.1-4.3 6.1-11 3.1-6.7 3.7-6.7 0.7 0 0.7 0.8 0 2.9-3 9.2-8.1 17.3-13.7 17.3zm40.2 0q-4 0-6.1-1.6-0.7-0.8-0.7-3.6 0-3 0.2-8-2.7 6.7-5.4 10-2.5 3.2-6.7 3.2-4.1 0-7.2-3.8-3.1-3.9-3.1-12.2 0-8.3 4.7-14.7 4.7-6.4 12.3-6.4 3.3 0 7.4 4.4 0.9-1.2 2.9-2.7 2.2-1.7 3.6-1.7 1.6 0 1.6 3.9 0 1.1-0.6 4.1-0.5 3-1.3 4.3-0.9 2.4-0.9 16.8 0 2.8 0.6 2.8 1.8-0.1 4.9-4.4 3.1-4.3 6-11 3.1-6.7 3.7-6.7 0.8 0 0.8 0.8 0 2.9-3 9.2-8.2 17.3-13.7 17.3zm-12.6-32.9q-2.9 0-6.2 4.3-3.2 4.2-3.2 10 0 5.7 1.7 9.4 1.7 3.8 4.5 3.8 3.4 0 10-17 0.1-0.9 0.2-2.8 0.2-2.1 0.3-3.1-0.9-1.7-3.3-3.1-2.2-1.5-4-1.5z"/>
</svg>